<svg width="54" height="55" viewBox="0 0 54 55" fill="none" xmlns="http://www.w3.org/2000/svg">
<path d="M26.525 0L32.7867 21.0081H53.05L36.6567 33.9919L42.9184 55L26.525 42.0163L10.1316 55L16.3933 33.9919L0 21.0081H20.2633L26.525 0Z" fill="#A42F2F"/>
<path fill-rule="evenodd" clip-rule="evenodd" d="M26.0245 0.00355579L26.1673 0L32.7809 20.7739H53.05L44.4919 27.429L36.8347 33.6087L42.1247 54.3654L27.0043 39.932L26.9254 39.934L26.9236 39.855L26.623 39.568L26.9096 39.2336L26.0245 0.00355579ZM26.1673 0L32.0451 21.9931H48.785L35.25 33.3223L42.6902 55L36.3843 50.2464L32.7809 47.3942L26.0245 42.1652L26.1673 0Z" fill="#E0D5D5"/>
<path d="M26.0245 42.1652L32.7809 47.3942L36.3843 50.2464L42.6902 55L35.25 33.3223L48.785 21.9931H32.0451L26.1673 0L26.0245 42.1652Z" fill="#E0D5D5"/>
</svg>
